<svg id="Layer_1" data-name="Layer 1" xmlns="http://www.w3.org/2000/svg" viewBox="0 0 733.53 605.35"><defs><style>.cls-1{fill:#051b21;}</style></defs><title>logo</title><path class="cls-1" d="M818.89,538.66A98.21,98.21,0,0,0,835,531.88c46.39-25.9,68-67.19,70.86-118.66,1.67-30.2.31-60.58.3-90.87,0-11.71-2.21-13.88-14.19-13.9-18.08,0-36.17-.27-54.24.15-5.72.13-6.87-1.65-6.76-7,.34-16.85.16-33.72.11-50.57,0-9.16-3.6-14-10.24-14.11-6.84-.11-10.28,4.44-10.3,13.73,0,16.86-.24,33.72.12,50.57.12,5.63-1.2,7.43-7.17,7.37q-48.37-.48-96.75,0c-6.13.07-7.19-2-7.08-7.46.32-17.1.1-34.2.13-51.31,0-4.27-.28-8.38-4.29-11a9.86,9.86,0,0,0-10.41-.8c-4.5,2.25-5.9,6.12-5.89,10.89.05,17.84-.15,35.67.13,53.51.07,4.78-1.18,6.22-6.07,6.15-19.05-.28-38.11-.19-57.17-.08-9.26,0-12.34,3.16-12.43,12.3-.1,10.26-.19,20.53,0,30.78.51,25.62-2.31,51.44,2,76.84,8.73,51.87,34.43,91.13,85.6,110.22,3.79,1.41,4.63,3.38,4.57,7q-.27,16.12,0,32.25c.13,9.27,3.26,12.33,12.33,12.53,3.66.08,7.34-.14,11,0,7.47.38,17.47-3.25,21.69,1.5,3.69,4.15.71,14,1.26,21.23.39,5.11-1.1,6.47-6.31,6.44-40.07-.24-80.14-.12-120.21-.15-6.08,0-13.56,1.84-17.84-1-4.07-2.71-1.92-10.84-2.77-16.55-17-113.61-115-191.45-229.34-182.06-91.82,7.54-170.41,78-188.21,168.41-1.28,6.51-.79,13.45-4.23,19.5v7.33q3.39,4.4,0,8.8v13.19c2.18,2.93,2.35,5.86,0,8.8v7.33c2.29.78,1.41,2.83,1.63,4.34,14.58,99.69,89.35,173,189.08,183.4C432,848.06,490.36,825.57,538,776.67c35.12-36.07,54.21-79.93,58.1-130.19.41-5.27,1.89-6.66,7.23-6.62,40.56.27,81.12.15,121.68.15,17,0,16.82,0,17.08,16.75.22,14.61-1.65,29.37,1.94,43.8,8.68,34.88,42.57,55,80.66,48,30-5.5,52.62-32.81,52.53-63.44-.09-31.66-22.17-58.57-52.47-64.23-13.11-2.45-26.32-.8-39.47-1.41-7.46-.35-18,3.34-21.57-1.5-3.77-5.07-.83-15-1.2-22.76-.19-4,1.28-4.94,5-4.86,11.23.22,22.48.14,33.72.06,10.09-.07,13.21-3.1,13.32-13.08.12-10.75.14-21.5,0-32.25C814.44,541.63,815.48,539.83,818.89,538.66ZM371.16,684.43c.11,3-.77,4.24-3.91,4.49a210.85,210.85,0,0,0-75,20.24c-2.6,1.25-3.36.32-4.16-1.74-7.66-19.62-12.76-39.82-14.16-60.92-.22-3.31.94-3.59,3.54-3.59q44.65.07,89.3,0c3.23,0,4.22,1.08,4.12,4.23-.21,6.33-.06,12.68-.06,19h.25C371.09,672.24,370.93,678.34,371.16,684.43Zm-5.56-66.08c-14.66-.23-29.32-.09-44-.09-13.93,0-27.86-.15-41.78.09-4.49.08-6.31-.61-5.82-5.85a215,215,0,0,1,15.79-62.85c1.79-4.3,3.48-4,7-2.33a204.85,204.85,0,0,0,69,17.78c3.46.28,4.57,1.24,4.58,4.7,0,14.41.13,28.81.53,43.21C371,617.21,369.75,618.42,365.59,618.35Zm4.74-161.8c0,26.92-.07,52.76.08,78.6,0,3.94-.65,5.72-5.13,5.24A193,193,0,0,1,307,524.94c-2.71-1.2-3.15-2.19-1.54-4.67A205.61,205.61,0,0,1,370.34,456.55Zm-39.45-4.94c-6.65,7.29-12.69,14.14-19,20.76a213.63,213.63,0,0,0-27,34.49c-2.08,3.34-3.48,4.41-7,1.68-6.54-5-13.25-9.77-19.35-15.69C279.85,473.56,303.55,459.7,330.89,451.61ZM198.58,614.13A187.48,187.48,0,0,1,241.3,511c8.43,7.17,16.64,14.11,25.77,19.82,2.59,1.62,2.94,3,1.66,5.88a220.25,220.25,0,0,0-19.38,77.57c-.19,3.21-1.4,4.1-4.43,4.08q-21.25-.17-42.51,0C199.31,618.32,198.24,617.6,198.58,614.13ZM235.47,743c-21.3-28.66-33.47-60.74-37-96.23-.38-3.86,1.43-3.86,4.12-3.84,7.07.07,14.15,0,21.22,0,6.83,0,13.67.21,20.49-.08,3.84-.16,4.89,1.24,5.11,4.92,1.41,24.29,7.21,47.6,16.43,70,1.42,3.46,1.64,5.44-1.91,7.76a153,153,0,0,0-22.34,17.66C239.35,745.43,237.85,746.19,235.47,743Zm58.07,50.76A194.56,194.56,0,0,1,258.7,768.6c-3.2-2.85-4.28-4.68-.13-7.67,5.91-4.26,11.42-9.08,17.14-13.61,1.73-1.37,3.3-2.77,5.13.37,13.48,23.17,31,42.89,51.39,60.23.24.21.1.87.18,2C318.48,806.4,305.79,800.55,293.54,793.75Zm77.79,11.36A200.47,200.47,0,0,1,313,751.71c-3.61-4.89-6.58-10.26-10.21-15.14-2.56-3.44-1.35-4.51,2-6.1,19.6-9.27,40.29-14.37,61.72-16.94,3.8-.46,4.94.61,4.91,4.54C371.25,746.85,371.33,775.64,371.33,805.11ZM530.81,513.45c23.52,29.63,37,63.26,40.67,100.89.37,3.8-1.27,4-4.05,3.95-6.84-.07-13.68,0-20.52,0s-13.68-.09-20.52,0c-3,.06-4.18-.82-4.4-4.1a218.51,218.51,0,0,0-20.13-78.81c-1.65-3.52-.47-5,2.25-7,6.87-5.06,13.69-10.23,20-15.91C527.42,509.59,528.69,510.76,530.81,513.45Zm-35.71-34c16.86,12.37,16.62,12.29.27,25.23-5.37,4.25-7.82,4.32-11.83-2-12.66-19.8-28.69-36.72-48.21-52.19A179.62,179.62,0,0,1,495.1,479.43ZM394.8,453a208,208,0,0,1,69.85,65.35c2.17,3.23,1.31,4.28-1.81,5.69a187,187,0,0,1-62.47,16.45c-2.94.23-5.68.89-5.65-3.93C394.89,509.23,394.8,481.94,394.8,453Zm-.08,118.32c-.12-4.26.93-5.85,5.55-6.15a197.7,197.7,0,0,0,73-19c4.38-2.1,6.07-1.43,7.94,3a214.25,214.25,0,0,1,16,63.48c.42,4.47-.54,5.9-5.27,5.8-15.13-.31-30.27-.12-45.4-.12s-30.28-.21-45.4.12c-4.91.11-6.06-1.44-6-6.13C395.34,598.59,395.1,584.92,394.71,571.27Zm.54,75.45c-.14-4.47,2.54-3.78,5.17-3.78h46.15c15.14,0,30.28.2,45.42-.12,4.69-.1,5.71,1.23,5.28,5.74A213,213,0,0,1,482.92,708c-1.44,3.59-2.94,3.56-5.83,2.11A205.28,205.28,0,0,0,400.8,689c-4-.32-5.2-1.6-5.14-5.68C395.83,671.12,395.65,658.91,395.26,646.72ZM396,805.36c0-29.24.07-58.49-.08-87.73,0-3.66.94-4.53,4.53-4.15,22.74,2.42,44.5,8.18,65.06,18.28,2.4,1.18,4.94,1.68,2.51,5.6A206.48,206.48,0,0,1,398.71,806Zm115.32-36.78c-20.15,18.13-42.92,31.7-68.77,40-1.09.35-2.32.24-5.22.5,21.1-17.24,37.63-35.9,50.66-57.49,2.71-4.49,4.68-4.33,8.08-1.3q7.36,6.54,15.06,12.69C513.65,764.94,513.85,766.31,511.34,768.57Zm60-122c-3.33,36.06-15.74,68.34-37.45,97.07-2.31,3.06-3.7,3.7-6.6.8a154.27,154.27,0,0,0-21-17.07c-2.3-1.61-3.91-2.78-2.34-6.38a220.3,220.3,0,0,0,18-74.14c.22-3.41,1.61-4,4.5-4,13.67.08,27.34,0,41,0C570.19,642.93,572.78,642.88,571.38,646.59Zm198.33-6.68c7.29.42,14.63.11,21.95.12,6.83,0,13.66-.13,20.49,0,25.24.62,44.34,19.9,44.47,44.77.13,24.09-19.17,43.62-44.05,44.58-30,1.15-50-18.08-50-48.18,0-11.47.4-23-.17-34.39C762.08,640.72,764.33,639.59,769.72,639.9ZM805,521.3c-9.07,2.27-11,4.77-11.06,14.34-.06,9.77-.17,19.54.06,29.3.09,3.72-.89,5-4.84,5q-34.07-.26-68.13,0c-4.07,0-4.82-1.51-4.75-5.11.19-10.25.09-20.51,0-30.77,0-6.28-2.5-10.73-9.06-12.36-42.83-10.69-66.2-40.32-78.23-80.81-3.64-12.25-4.81-24.89-4.83-37.63,0-22.71.18-45.43-.15-68.13-.08-5.36,1.64-6.31,6.58-6.28,41.76.2,83.52.11,125.28.11,41.27,0,82.54.09,123.81-.12,5.05,0,6.56,1.14,6.48,6.37-.39,26.12.76,52.32-.73,78.37-2.19,38.36-17.56,70.58-49.33,93.77C826.78,514.23,816.24,518.49,805,521.3Z" transform="translate(-173.18 -236.89)"/></svg>