<svg xmlns="http://www.w3.org/2000/svg" viewBox="0 0 733.49 605.32"><defs><style>.cls-1{fill:#fff;}</style></defs><title>faviconLight</title><g id="Layer_2" data-name="Layer 2"><g id="Layer_1-2" data-name="Layer 1"><path class="cls-1" d="M645.69,301.76A98.21,98.21,0,0,0,661.8,295c46.39-25.9,68-67.19,70.86-118.66,1.67-30.2.31-60.58.3-90.87,0-11.71-2.21-13.88-14.19-13.9-18.08,0-36.17-.27-54.24.15-5.72.13-6.87-1.65-6.76-7,.34-16.85.16-33.72.11-50.57,0-9.16-3.6-14-10.24-14.11-6.84-.11-10.28,4.44-10.3,13.73,0,16.86-.24,33.72.12,50.57.12,5.63-1.2,7.43-7.17,7.37q-48.37-.48-96.75,0c-6.13.07-7.19-2-7.08-7.46.32-17.1.1-34.2.13-51.31,0-4.27-.28-8.38-4.29-11a9.86,9.86,0,0,0-10.41-.8C507.39,3.37,506,7.24,506,12c0,17.84-.15,35.67.13,53.51.07,4.78-1.18,6.22-6.07,6.15-19-.28-38.11-.19-57.17-.08-9.26,0-12.34,3.16-12.43,12.3-.1,10.26-.19,20.53,0,30.78.51,25.62-2.31,51.44,2,76.84,8.73,51.87,34.43,91.13,85.6,110.22,3.79,1.41,4.63,3.38,4.57,7q-.27,16.12,0,32.25c.13,9.27,3.26,12.33,12.33,12.53,3.66.08,7.34-.14,11,0,7.47.38,17.47-3.25,21.69,1.5,3.69,4.15.71,14,1.26,21.23.39,5.11-1.1,6.47-6.31,6.44-40.07-.24-80.14-.12-120.21-.15-6.08,0-13.56,1.84-17.84-1-4.07-2.71-1.92-10.84-2.77-16.55-17-113.61-115-191.45-229.34-182.06C100.62,190.46,22,260.92,4.23,351.33c-1.28,6.51-.79,13.45-4.23,19.5v7.33q3.39,4.4,0,8.8v13.19c2.18,2.93,2.35,5.86,0,8.8v7.33c2.29.78,1.41,2.83,1.63,4.34C16.21,520.31,91,593.62,190.71,604c68.09,7.14,126.45-15.35,174.09-64.25,35.12-36.07,54.21-79.93,58.1-130.19.41-5.27,1.89-6.66,7.23-6.62,40.56.27,81.12.15,121.68.15,17,0,16.82,0,17.08,16.75.22,14.61-1.65,29.37,1.94,43.8,8.68,34.88,42.57,55,80.66,48,30-5.5,52.62-32.81,52.53-63.44-.09-31.66-22.17-58.57-52.47-64.23-13.11-2.45-26.32-.8-39.47-1.41-7.46-.35-18,3.34-21.57-1.5-3.77-5.07-.83-15-1.2-22.76-.19-4,1.28-4.94,5-4.86,11.23.22,22.48.14,33.72.06,10.09-.07,13.21-3.1,13.32-13.08.12-10.75.14-21.5,0-32.25C641.24,304.73,642.28,302.93,645.69,301.76ZM198,447.53c.11,3-.77,4.24-3.91,4.49a210.85,210.85,0,0,0-75,20.24c-2.6,1.25-3.36.32-4.16-1.74-7.66-19.62-12.76-39.82-14.16-60.92-.22-3.31.94-3.59,3.54-3.59q44.65.07,89.3,0c3.23,0,4.22,1.08,4.12,4.23-.21,6.33-.06,12.68-.06,19h.25C197.89,435.34,197.73,441.44,198,447.53Zm-5.56-66.08c-14.66-.23-29.32-.09-44-.09-13.93,0-27.86-.15-41.78.09-4.49.08-6.31-.61-5.82-5.85a215,215,0,0,1,15.79-62.85c1.79-4.3,3.48-4,7-2.33a204.85,204.85,0,0,0,69,17.78c3.46.28,4.57,1.24,4.58,4.7,0,14.41.13,28.81.53,43.21.1,4.2-1.15,5.41-5.31,5.34Zm4.74-161.8c0,26.92-.07,52.76.08,78.6,0,3.94-.65,5.72-5.13,5.24A193,193,0,0,1,133.8,288c-2.71-1.2-3.15-2.19-1.54-4.67A205.61,205.61,0,0,1,197.14,219.65Zm-39.45-4.94c-6.65,7.29-12.69,14.14-19,20.76a213.63,213.63,0,0,0-27,34.49c-2.08,3.34-3.48,4.41-7,1.68-6.54-5-13.25-9.77-19.35-15.69,21.31-19.29,45-33.15,72.35-41.24ZM25.38,377.23A187.48,187.48,0,0,1,68.1,274.1c8.43,7.17,16.64,14.11,25.77,19.82,2.59,1.62,2.94,3,1.66,5.88a220.25,220.25,0,0,0-19.38,77.57c-.19,3.21-1.4,4.1-4.43,4.08q-21.25-.17-42.51,0C26.11,381.42,25,380.7,25.38,377.23ZM62.27,506.1c-21.3-28.66-33.47-60.74-37-96.23C24.89,406,26.7,406,29.39,406c7.07.07,14.15,0,21.22,0,6.83,0,13.67.21,20.49-.08,3.84-.16,4.89,1.24,5.11,4.92a216,216,0,0,0,16.43,70c1.42,3.46,1.64,5.44-1.91,7.76a153,153,0,0,0-22.34,17.66C66.15,508.53,64.65,509.29,62.27,506.1Zm58.07,50.76A194.56,194.56,0,0,1,85.5,531.7c-3.2-2.85-4.28-4.68-.13-7.67,5.91-4.26,11.42-9.08,17.14-13.61,1.73-1.37,3.3-2.77,5.13.37C121.12,534,138.64,553.68,159,571c.24.21.1.87.18,2-13.93-3.52-26.62-9.37-38.87-16.17Zm77.79,11.36a200.47,200.47,0,0,1-58.33-53.41c-3.61-4.89-6.58-10.26-10.21-15.14-2.56-3.44-1.35-4.51,2-6.1,19.6-9.27,40.29-14.37,61.72-16.94,3.8-.46,4.94.61,4.91,4.54-.17,28.78-.09,57.57-.09,87ZM357.61,276.55Q392.89,321,398.28,377.44c.37,3.8-1.27,4-4,4-6.84-.07-13.68,0-20.52,0s-13.68-.09-20.52,0c-3,.06-4.18-.82-4.4-4.1a218.51,218.51,0,0,0-20.13-78.81c-1.65-3.52-.47-5,2.25-7,6.87-5.06,13.69-10.23,20-15.91C354.22,272.69,355.49,273.86,357.61,276.55Zm-35.71-34c16.86,12.37,16.62,12.29.27,25.23-5.37,4.25-7.82,4.32-11.83-2-12.66-19.8-28.69-36.72-48.21-52.19a179.62,179.62,0,0,1,59.77,28.94ZM221.6,216.1a208,208,0,0,1,69.85,65.35c2.17,3.23,1.31,4.28-1.81,5.69a187,187,0,0,1-62.47,16.45c-2.94.23-5.68.89-5.65-3.93C221.69,272.33,221.6,245,221.6,216.1Zm-.08,118.32c-.12-4.26.93-5.85,5.55-6.15a197.7,197.7,0,0,0,73-19c4.38-2.1,6.07-1.43,7.94,3a214.25,214.25,0,0,1,16,63.48c.42,4.47-.54,5.9-5.27,5.8-15.13-.31-30.27-.12-45.4-.12s-30.28-.21-45.4.12c-4.91.11-6.06-1.44-6-6.13.2-13.73,0-27.4-.43-41Zm.54,75.45c-.14-4.47,2.54-3.78,5.17-3.78h46.15c15.14,0,30.28.2,45.42-.12,4.69-.1,5.71,1.23,5.28,5.74a213,213,0,0,1-14.36,59.39c-1.44,3.59-2.94,3.56-5.83,2.11A205.28,205.28,0,0,0,227.6,452.1c-4-.32-5.2-1.6-5.14-5.68.17-12.2,0-24.41-.4-36.6Zm.74,158.59c0-29.24.07-58.49-.08-87.73,0-3.66.94-4.53,4.53-4.15,22.74,2.42,44.5,8.18,65.06,18.28,2.4,1.18,4.94,1.68,2.51,5.6a206.48,206.48,0,0,1-69.31,68.64Zm115.32-36.78c-20.15,18.13-42.92,31.7-68.77,40-1.09.35-2.32.24-5.22.5,21.1-17.24,37.63-35.9,50.66-57.49,2.71-4.49,4.68-4.33,8.08-1.3q7.36,6.54,15.06,12.69c2.52,2,2.72,3.33.21,5.59Zm60-122c-3.33,36.06-15.74,68.34-37.45,97.07-2.31,3.06-3.7,3.7-6.6.8a154.27,154.27,0,0,0-21-17.07c-2.3-1.61-3.91-2.78-2.34-6.38a220.3,220.3,0,0,0,18-74.14c.22-3.41,1.61-4,4.5-4,13.67.08,27.34,0,41,0,2.76.07,5.35,0,3.95,3.73ZM596.45,403c7.29.42,14.63.11,22,.12,6.83,0,13.66-.13,20.49,0,25.24.62,44.34,19.9,44.47,44.77.13,24.09-19.17,43.62-44,44.58-30,1.15-50-18.08-50-48.18,0-11.47.4-23-.17-34.39-.26-6.08,2-7.21,7.38-6.9ZM631.8,284.4c-9.07,2.27-11,4.77-11.06,14.34-.06,9.77-.17,19.54.06,29.3.09,3.72-.89,5-4.84,5q-34.07-.26-68.13,0c-4.07,0-4.82-1.51-4.75-5.11.19-10.25.09-20.51,0-30.77,0-6.28-2.5-10.73-9.06-12.36-42.83-10.69-66.2-40.32-78.23-80.81-3.64-12.25-4.81-24.89-4.83-37.63,0-22.71.18-45.43-.15-68.13-.08-5.36,1.64-6.31,6.58-6.28,41.76.2,83.52.11,125.28.11,41.27,0,82.54.09,123.81-.12,5,0,6.56,1.14,6.48,6.37-.39,26.12.76,52.32-.73,78.37C710,215,694.67,247.26,662.9,270.45,653.58,277.33,643,281.59,631.8,284.4Z"/></g></g></svg>